<svg width="690.2375px" height="191.6px" xmlns="http://www.w3.org/2000/svg" viewBox="-95.11874999999998 -20.799999999999997 690.2375 191.6" style="background: rgb(255, 255, 255);" preserveAspectRatio="xMidYMid"><defs><filter id="editing-cake" x="-100%" y="-100%" width="300%" height="300%"><feFlood flood-color="#2d1500" result="flood-shadow"></feFlood><feFlood flood-color="#894619"></feFlood><feComposite operator="in" in2="SourceAlpha"></feComposite><feConvolveMatrix order="7,10" divisor="1" result="conv" kernelMatrix="0 0 0 1 0 0 0 0 0 1 0 1 0 0 0 0 1 0 1 0 0 0 1 0 0 0 1 0 0 1 0 0 0 1 0 0 1 0 0 0 1 0 1 0 0 0 0 0 1 1 0 0 0 0 0 1 0 1 1 0 1 1 0 0 0 0 1 0 0 0 "></feConvolveMatrix><feGaussianBlur stdDeviation="0.5"></feGaussianBlur><feOffset dy="4" result="offset"></feOffset><feComposite operator="in" in="flood-shadow" in2="offset"></feComposite><feGaussianBlur stdDeviation="4"></feGaussianBlur><feComponentTransfer><feFuncA type="linear" slope="0.7" intercept="-0.2"></feFuncA></feComponentTransfer><feOffset dy="4" result="shadow"></feOffset><feGaussianBlur in="SourceGraphic" stdDeviation="0.5"></feGaussianBlur><feOffset dy="0" result="x0"></feOffset><feGaussianBlur in="SourceGraphic" stdDeviation="1"></feGaussianBlur><feComponentTransfer><feFuncA type="linear" slope="0.8" intercept="-.01"></feFuncA></feComponentTransfer><feOffset dy="1" result="x1"></feOffset><feGaussianBlur in="SourceGraphic" stdDeviation="2"></feGaussianBlur><feComponentTransfer><feFuncA type="linear" slope="0.7" intercept="-.01"></feFuncA></feComponentTransfer><feOffset dy="2" result="x2"></feOffset><feGaussianBlur in="SourceGraphic" stdDeviation="3"></feGaussianBlur><feComponentTransfer><feFuncA type="linear" slope="0.6" intercept="-.01"></feFuncA></feComponentTransfer><feOffset dy="3" result="x3"></feOffset><feMerge><feMergeNode in="shadow"></feMergeNode><feMergeNode in="offset"></feMergeNode><feMergeNode in="x3"></feMergeNode><feMergeNode in="x2"></feMergeNode><feMergeNode in="x1"></feMergeNode><feMergeNode in="x0"></feMergeNode></feMerge></filter></defs><g filter="url(#editing-cake)"><g transform="translate(3.2999788522720337, 112.07499980926514)"><path d="M1.84 0L1.84-15.09L6.44-15.09L6.44-56.49L1.84-56.49L1.84-71.58L44.07-71.58L44.07-71.58Q55.57-71.58 62.01-66.88L62.01-66.88L62.01-66.88Q68.45-62.19 68.45-53.45L68.45-53.45L68.45-53.45Q68.45-48.02 65.87-44.30L65.87-44.30L65.87-44.30Q63.30-40.57 59.85-38.69L59.85-38.69L59.85-38.69Q56.40-36.80 53.18-36.16L53.18-36.16L53.18-35.24L53.18-35.24Q59.71-34.59 64.95-31.10L64.95-31.10L64.95-31.10Q70.20-27.60 70.20-18.58L70.20-18.58L70.20-18.58Q70.20-8.92 62.93-4.46L62.93-4.46L62.93-4.46Q55.66 0 44.07 0L44.07 0L1.84 0ZM32.20-41.40L37.17-41.40L37.17-41.40Q39.84-41.40 41.17-42.83L41.17-42.83L41.17-42.83Q42.50-44.25 42.50-47.29L42.50-47.29L42.50-50.60L42.50-50.60Q42.50-53.64 41.17-55.06L41.17-55.06L41.17-55.06Q39.84-56.49 37.17-56.49L37.17-56.49L32.20-56.49L32.20-41.40ZM32.20-15.09L37.81-15.09L37.81-15.09Q40.48-15.09 41.81-16.51L41.81-16.51L41.81-16.51Q43.15-17.94 43.15-20.98L43.15-20.98L43.15-25.02L43.15-25.02Q43.15-28.06 41.81-29.49L41.81-29.49L41.81-29.49Q40.48-30.91 37.81-30.91L37.81-30.91L32.20-30.91L32.20-15.09ZM107.73 1.29L107.73 1.29Q90.90 1.29 81.74-7.54L81.74-7.54L81.74-7.54Q72.59-16.38 72.59-35.79L72.59-35.79L72.59-35.79Q72.59-55.20 81.74-64.03L81.74-64.03L81.74-64.03Q90.90-72.86 107.73-72.86L107.73-72.86L107.73-72.86Q124.57-72.86 133.72-64.03L133.72-64.03L133.72-64.03Q142.88-55.20 142.88-35.79L142.88-35.79L142.88-35.79Q142.88-16.38 133.72-7.54L133.72-7.54L133.72-7.54Q124.57 1.29 107.73 1.29L107.73 1.29ZM107.73-15.09L107.73-15.09Q110.86-15.09 112.42-16.74L112.42-16.74L112.42-16.74Q113.99-18.40 113.99-21.90L113.99-21.90L113.99-49.68L113.99-49.68Q113.99-53.18 112.42-54.83L112.42-54.83L112.42-54.83Q110.86-56.49 107.73-56.49L107.73-56.49L107.73-56.49Q104.60-56.49 103.04-54.83L103.04-54.83L103.04-54.83Q101.48-53.18 101.48-49.68L101.48-49.68L101.48-21.90L101.48-21.90Q101.48-18.31 103.04-16.70L103.04-16.70L103.04-16.70Q104.60-15.09 107.73-15.09L107.73-15.09ZM183.45-56.49L183.45-71.58L211.69-71.58L211.69-56.49L208.01-56.49L190.26-24.66L190.26-15.09L194.86-15.09L194.86 0L159.90 0L159.90-15.09L164.50-15.09L164.50-24.66L146.19-56.49L142.51-56.49L142.51-71.58L178.11-71.58L178.11-56.49L174.89-56.49L180.32-42.23L181.24-42.23L186.67-56.49L183.45-56.49ZM247.57 1.29L247.57 1.29Q230.18 1.29 220.75-7.54L220.75-7.54L220.75-7.54Q211.32-16.38 211.32-35.79L211.32-35.79L211.32-35.79Q211.32-72.86 247.39-72.86L247.39-72.86L247.39-72.86Q256.13-72.86 263.63-70.75L263.63-70.75L263.63-70.75Q271.12-68.63 274.80-66.06L274.80-66.06L274.80-43.06L252.72-43.06L252.72-49.68L252.72-49.68Q252.72-53.18 251.16-54.83L251.16-54.83L251.16-54.83Q249.60-56.49 246.47-56.49L246.47-56.49L246.47-56.49Q243.34-56.49 241.78-54.83L241.78-54.83L241.78-54.83Q240.21-53.18 240.21-49.68L240.21-49.68L240.21-21.90L240.21-21.90Q240.21-18.40 241.78-16.74L241.78-16.74L241.78-16.74Q243.34-15.09 246.47-15.09L246.47-15.09L246.47-15.09Q249.60-15.09 251.16-16.74L251.16-16.74L251.16-16.74Q252.72-18.40 252.72-21.90L252.72-21.90L252.72-29.35L274.80-29.35L274.80-5.52L274.80-5.52Q271.03-2.94 263.63-0.83L263.63-0.83L263.63-0.83Q256.22 1.29 247.57 1.29L247.57 1.29ZM312.89 1.29L312.89 1.29Q296.06 1.29 286.90-7.54L286.90-7.54L286.90-7.54Q277.75-16.38 277.75-35.79L277.75-35.79L277.75-35.79Q277.75-55.20 286.90-64.03L286.90-64.03L286.90-64.03Q296.06-72.86 312.89-72.86L312.89-72.86L312.89-72.86Q329.73-72.86 338.88-64.03L338.88-64.03L338.88-64.03Q348.04-55.20 348.04-35.79L348.04-35.79L348.04-35.79Q348.04-16.38 338.88-7.54L338.88-7.54L338.88-7.54Q329.73 1.29 312.89 1.29L312.89 1.29ZM312.89-15.09L312.89-15.09Q316.02-15.09 317.58-16.74L317.58-16.74L317.58-16.74Q319.15-18.40 319.15-21.90L319.15-21.90L319.15-49.68L319.15-49.68Q319.15-53.18 317.58-54.83L317.58-54.83L317.58-54.83Q316.02-56.49 312.89-56.49L312.89-56.49L312.89-56.49Q309.76-56.49 308.20-54.83L308.20-54.83L308.20-54.83Q306.64-53.18 306.64-49.68L306.64-49.68L306.64-21.90L306.64-21.90Q306.64-18.31 308.20-16.70L308.20-16.70L308.20-16.70Q309.76-15.09 312.89-15.09L312.89-15.09ZM419.80-71.58L419.80-49.31L403.97-49.31L403.97-56.49L398.08-56.49L398.08-15.09L404.52-15.09L404.52 0L365.88 0L365.88-15.09L372.32-15.09L372.32-56.49L366.44-56.49L366.44-49.31L350.61-49.31L350.61-71.58L419.80-71.58ZM491.56-71.58L491.56-49.31L475.73-49.31L475.73-56.49L469.84-56.49L469.84-15.09L476.28-15.09L476.28 0L437.64 0L437.64-15.09L444.08-15.09L444.08-56.49L438.20-56.49L438.20-49.31L422.37-49.31L422.37-71.58L491.56-71.58Z" fill="#ffd800"></path></g></g><style>text {
  font-size: 64px;
  font-family: Arial Black;
  dominant-baseline: central;
  text-anchor: middle;
}</style></svg>